<?xml version="1.0" encoding="UTF-8"?>
<svg version="1.1" xmlns="http://www.w3.org/2000/svg" width="231" height="216">
<path d="M0 0 C1.35514709 -0.00262848 1.35514709 -0.00262848 2.7376709 -0.00531006 C5.699076 -0.00968197 8.66042055 -0.00680833 11.62182617 -0.00341797 C13.68828849 -0.00409205 15.75475072 -0.00506295 17.82121277 -0.00631714 C22.13911702 -0.00778754 26.45700051 -0.00565961 30.77490234 -0.00097656 C36.31439 0.00473825 41.8538294 0.00142651 47.39331532 -0.00454903 C51.65429551 -0.00815715 55.9152642 -0.0070152 60.17624474 -0.00442123 C62.21963189 -0.00375359 64.26302008 -0.00457474 66.30640602 -0.00690079 C69.15481986 -0.00943334 72.00315457 -0.00557895 74.8515625 0 C76.12095924 -0.00303635 76.12095924 -0.00303635 77.41600037 -0.00613403 C80.73271596 0.00593255 83.43352482 0.07313783 86.60229492 1.12939453 C84.97706443 10.52777295 82.19477429 19.52287953 79.41088867 28.62548828 C78.90007637 30.30782617 78.38967162 31.99028786 77.87965393 33.67286682 C76.54441057 38.07382562 75.20345913 42.47302481 73.86132812 46.87188721 C72.49331457 51.35960181 71.13117442 55.84909835 69.76831055 60.33837891 C67.78017701 66.88343173 65.79049553 73.42800981 63.79541016 79.97094727 C63.48291573 80.99718704 63.48291573 80.99718704 63.16410828 82.04415894 C62.33832514 84.74995653 61.49696138 87.44539516 60.60229492 90.12939453 C40.80229492 90.12939453 21.00229492 90.12939453 0.60229492 90.12939453 C1.09729492 93.59439453 1.09729492 93.59439453 1.60229492 97.12939453 C1.60229492 103.06939453 1.60229492 109.00939453 1.60229492 115.12939453 C18.10229492 115.12939453 34.60229492 115.12939453 51.60229492 115.12939453 C49.25984185 125.08482009 46.99103106 134.71609874 43.84643555 144.39624023 C43.62318604 145.08658356 43.39993652 145.77692688 43.16992188 146.4881897 C42.94135498 147.19478729 42.71278809 147.90138489 42.47729492 148.62939453 C41.50254932 151.67388945 40.53255414 154.71988769 39.56323242 157.76611328 C39.31816956 158.53457077 39.07310669 159.30302826 38.82061768 160.09477234 C37.08477857 165.55623228 35.40854955 171.03362794 33.76635742 176.52392578 C33.42711746 177.65633194 33.42711746 177.65633194 33.08102417 178.81161499 C32.20770659 181.73070602 31.33564554 184.65010362 30.4743042 187.57275391 C29.88614048 189.5682905 29.29154518 191.56181855 28.69604492 193.55517578 C28.36282227 194.6835083 28.02959961 195.81184082 27.6862793 196.97436523 C25.36138068 203.74118162 22.90470248 208.44581421 16.41479492 211.75439453 C1.0667004 217.77582181 -18.54411024 218.13646555 -33.89770508 212.25439453 C-39.92523326 209.57659103 -44.6234437 206.63510782 -48.39770508 201.12939453 C-49.40942383 197.66845703 -49.40942383 197.66845703 -50.08520508 193.75439453 C-50.31594727 192.48853516 -50.54668945 191.22267578 -50.78442383 189.91845703 C-53.00997152 174.09532445 -52.56122148 158.03701967 -52.56567383 142.10205078 C-52.56710101 140.75426146 -52.56869776 139.40647232 -52.57045937 138.0586834 C-52.57966301 131.00518242 -52.58380021 123.95170014 -52.58300781 116.89819336 C-52.58240712 110.37425659 -52.5929702 103.85040251 -52.60875148 97.32648665 C-52.62191425 91.67926786 -52.62718814 86.03207583 -52.6265524 80.38484186 C-52.62630014 77.03214575 -52.62995273 73.67958171 -52.63973045 70.32689095 C-52.75411223 27.07420192 -52.75411223 27.07420192 -38.85473633 12.39111328 C-27.72689113 2.14783447 -14.58685622 -0.03531352 0 0 Z " fill="#012348" transform="translate(52.397705078125,-0.12939453125)"/>
<path d="M0 0 C1.11696762 0.00222061 2.23393524 0.00444122 3.38475037 0.00672913 C4.64598221 0.00680466 5.90721405 0.00688019 7.20666504 0.00695801 C8.59341979 0.01206542 9.98017414 0.01728142 11.3669281 0.02259827 C12.77797394 0.0244625 14.18902042 0.02588638 15.60006714 0.02688599 C19.3204272 0.03071072 23.04074845 0.04054062 26.76109314 0.05158997 C30.55482966 0.06180504 34.34857243 0.06638381 38.14231873 0.07142639 C45.59090416 0.08216294 53.03945758 0.09923882 60.48802185 0.12025452 C63.25015515 6.04451415 65.55802909 11.96853208 67.50364685 18.20619202 C67.89468597 19.44159225 67.89468597 19.44159225 68.29362488 20.70195007 C68.83721786 22.42375027 69.37823124 24.14636688 69.91673279 25.86976624 C70.74313407 28.51159721 71.57985398 31.15000538 72.41770935 33.78822327 C72.94696729 35.46902023 73.47563464 37.1500033 74.00364685 38.83119202 C74.25358398 39.61867828 74.50352112 40.40616455 74.7610321 41.21751404 C75.71483228 44.28658391 76.48802185 46.88641083 76.48802185 50.12025452 C45.46802185 50.12025452 14.44802185 50.12025452 -17.51197815 50.12025452 C-16.17368766 43.42880209 -14.74470239 37.1165261 -12.7268219 30.64759827 C-12.46567093 29.79847366 -12.20451996 28.94934906 -11.93545532 28.07449341 C-11.38902533 26.30166368 -10.84021124 24.52956713 -10.28907776 22.75819397 C-9.44242364 20.03506479 -8.60461442 17.30932375 -7.76783752 14.58314514 C-7.23384673 12.85447053 -6.69935986 11.12594906 -6.1643219 9.39759827 C-5.91327194 8.5810527 -5.66222198 7.76450714 -5.40356445 6.92321777 C-3.29086965 0.15754195 -3.29086965 0.15754195 0 0 Z " fill="#012348" transform="translate(137.51197814941406,114.87974548339844)"/>
<path d="M0 0 C36.96 0 73.92 0 112 0 C120 25 120 25 120 26 C108.95834384 26.0308559 97.91669246 26.05106667 86.875 26.0625 C85.64377851 26.06378403 85.64377851 26.06378403 84.38768387 26.06509399 C53.91393077 26.09314468 23.46583724 25.73623978 -7 25 C-4.74838303 16.64172487 -2.3784412 8.32454419 0 0 Z " fill="#012348" transform="translate(111,190)"/>
<path d="M0 0 C2.00552015 3.00828022 2.92228496 5.4495072 4.03125 8.87329102 C4.42505859 10.08207413 4.81886719 11.29085724 5.22460938 12.53627014 C5.65000331 13.85873071 6.07512664 15.18127834 6.5 16.50390625 C6.94050769 17.86579766 7.38126681 19.22760776 7.82226562 20.58934021 C8.74659158 23.44732339 9.66743551 26.30639977 10.5859375 29.16625977 C11.75572318 32.8073795 12.93463585 36.44546536 14.11633301 40.08273411 C15.02974202 42.89811634 15.93785241 45.71518695 16.84448242 48.53275871 C17.27653505 49.87313889 17.71025272 51.21298368 18.14575195 52.552248 C20.55651749 59.97575569 22.71872291 67.2926675 24 75 C8.30100064 75.10483203 -7.33755566 75.17415915 -23 74 C-20.72483299 65.40497082 -18.19005247 56.89871358 -15.5859375 48.3984375 C-15.16658161 47.0265161 -14.74728128 45.65457772 -14.32803345 44.28262329 C-13.45684936 41.4333324 -12.58432134 38.58445718 -11.7109375 35.73583984 C-10.59011784 32.07944418 -9.47380247 28.42168972 -8.35857201 24.76358604 C-7.49774156 21.94233203 -6.63404782 19.12196083 -5.76951981 16.30183792 C-5.35623712 14.95209286 -4.9439787 13.60203374 -4.53275681 12.25165939 C-3.96152106 10.37698079 -3.3859035 8.50363904 -2.81005859 6.63037109 C-2.48379486 5.56434662 -2.15753113 4.49832214 -1.82138062 3.3999939 C-1 1 -1 1 0 0 Z " fill="#012348" transform="translate(166,15)"/>
</svg>
